Coordinates
version=1
nRows=5
nColumns=107
inDegrees=yes

Units are S.I. units (second, meters, Newtons, ...)
If the header above contains a line with 'inDegrees', this indicates whether rotational values are in degrees (yes) or radians (no).

endheader
time	sternoclavicular_r2	sternoclavicular_r3	unrotscap_r3	unrotscap_r2	acromioclavicular_r2	acromioclavicular_r3	acromioclavicular_r1	unrothum_r1	unrothum_r3	unrothum_r2	elv_angle	shoulder_elv	shoulder1_r2	shoulder_rot	elbow_flexion	pro_sup	deviation	flexion	proximal_distal_r1	proximal_distal_r3	cmc_flexion	cmc_abduction	mp_flexion	ip_flexion	mcp2_flexion	mcp2_abduction	pm2_flexion	md2_flexion	mcp3_flexion	mcp3_abduction	pm3_flexion	md3_flexion	mcp4_flexion	mcp4_abduction	pm4_flexion	md4_flexion	mcp5_flexion	mcp5_abduction	pm5_flexion	md5_flexion	bicpt_tx	bicpt_ty	bicpt_tz	bicpt2_tx	bicpt2_ty	bicpt2_tz	ptpt_tx	ptpt_ty	ptpt_tz	FCUpt_tx	FCUpt_ty	FCUpt_tz	EDCpt_tx	EDCpt_ty	EDCpt_tz	APLpt_tx	APLpt_ty	APLpt_tz	FPLpt_tx	FPLpt_ty	FPLpt_tz	FPLpt2_tx	FPLpt2_ty	FPLpt2_tz	PEC1pt2_tx	PEC1pt2_ty	PEC1pt2_tz	PEC1pt3_tx	PEC1pt3_ty	PEC1pt3_tz	PEC2pt2_tx	PEC2pt2_ty	PEC2pt2_tz	PEC2pt3_tx	PEC2pt3_ty	PEC2pt3_tz	PEC3pt2_tx	PEC3pt2_ty	PEC3pt2_tz	PEC3pt3_tx	PEC3pt3_ty	PEC3pt3_tz	DELT2pt2a_tx	DELT2pt2a_ty	DELT2pt2a_tz	DELT2pt2_tx	DELT2pt2_ty	DELT2pt2_tz	LAT1pt2_tx	LAT1pt2_ty	LAT1pt2_tz	LAT1pt3_tx	LAT1pt3_ty	LAT1pt3_tz	LAT2pt2_tx	LAT2pt2_ty	LAT2pt2_tz	LAT2pt3_tx	LAT2pt3_ty	LAT2pt3_tz	LAT3pt2_tx	LAT3pt2_ty	LAT3pt2_tz	LAT3pt3_tx	LAT3pt3_ty	LAT3pt3_tz
      0.00000000	     -0.32882793	      0.13927599	     -0.13927599	      0.32882793	     -0.06658097	      0.53808395	      0.24186503	     -0.24186503	     -0.53808395	      0.06658097	     98.80851005	     77.85293483	     -1.72453383	    -17.97566915	     27.36443013	     35.35261738	      0.10594378	     -0.06318373	      0.13459415	     -0.03159186	     32.50444404	    -11.27929989	     14.64817748	      1.79232427	     -8.61029623	     13.51139102	      8.59075026	    -38.89199422	    -21.50087830	     -0.57352025	      7.34708536	     11.71195037	    -20.14674285	     -9.77957568	    -12.07054140	     20.92077471	    -38.31185118	    -13.80978106	     -7.87482061	      5.06475788	      0.00080513	     -0.03073638	     -0.00480519	      0.01654102	     -0.01763368	     -0.00795100	      0.00493784	     -0.06658907	     -0.00289784	      0.00731568	     -0.18358867	     -0.00034530	     -0.00424230	      0.00119453	      0.00017393	      0.00006130	      0.00002452	      0.00012261	      0.00007847	      0.00023540	      0.00013241	     -0.00001133	     -0.00022565	     -0.00027078	      0.00255185	      0.00895310	      0.00622824	     -0.00834757	      0.02015528	     -0.01911724	      0.00255185	      0.00895310	      0.00622824	      0.00056227	      0.01868472	     -0.00981813	      0.00401124	      0.00497870	      0.01612029	      0.00000000	      0.00810843	      0.00000000	     -0.00730953	     -0.03377955	     -0.00668755	      0.01258071	     -0.00037059	     -0.00262831	     -0.00090829	      0.01522459	     -0.00622824	      0.00250860	      0.02197185	     -0.01816570	     -0.00609849	      0.01319176	     -0.00557947	     -0.01271599	      0.02785407	     -0.03118445	     -0.02387492	      0.01474882	     -0.00748254	     -0.01583011	      0.03217924	     -0.03896975
      0.03333333	     -0.32889862	      0.13930593	     -0.13930593	      0.32889862	     -0.06659528	      0.53819964	      0.24191703	     -0.24191703	     -0.53819964	      0.06659528	     98.77832254	     77.86967288	     -1.72400696	    -17.99077880	     27.34688707	     35.34901124	      0.10601108	     -0.06320379	      0.13467329	     -0.03160189	     32.50297028	    -11.27866934	     14.64739278	      1.79222839	     -8.60970428	     13.51070242	      8.59081874	    -38.89160298	    -21.50290506	     -0.57597630	      7.34599720	     11.71111658	    -20.14751813	     -9.77970973	    -12.07058962	     20.92061062	    -38.31108520	    -13.81059626	     -7.87488853	      5.06460219	      0.00080455	     -0.03073437	     -0.00480487	      0.01654097	     -0.01762892	     -0.00795137	      0.00493811	     -0.06658889	     -0.00289755	      0.00731532	     -0.18358874	     -0.00034526	     -0.00424187	      0.00119438	      0.00017395	      0.00006132	      0.00002453	      0.00012264	      0.00007849	      0.00023547	      0.00013245	     -0.00001133	     -0.00022566	     -0.00027079	      0.00255240	      0.00895502	      0.00622958	     -0.00834937	      0.02015961	     -0.01912135	      0.00255240	      0.00895502	      0.00622958	      0.00056239	      0.01868874	     -0.00982024	      0.00401186	      0.00497977	      0.01612177	      0.00000000	      0.00811194	      0.00000000	     -0.00731110	     -0.03378681	     -0.00669047	      0.01258983	     -0.00037104	     -0.00263308	     -0.00090848	      0.01522786	     -0.00622958	      0.00250914	      0.02197657	     -0.01816961	     -0.00609980	      0.01319459	     -0.00558066	     -0.01271872	      0.02786006	     -0.03119116	     -0.02388005	      0.01475199	     -0.00748415	     -0.01583351	      0.03218616	     -0.03897813
      0.06666667	     -0.32916478	      0.13941866	     -0.13941866	      0.32916478	     -0.06664917	      0.53863516	      0.24211280	     -0.24211280	     -0.53863516	      0.06664917	     98.65684865	     77.93268672	     -1.72188684	    -17.28094341	     27.41810218	     34.10035942	      0.12611044	     -0.05930430	      0.15813257	     -0.02965215	     31.21681917	    -10.17271543	     15.66914064	      0.92304610	     -6.56651409	     13.52229832	      7.93238755	    -39.64386581	    -19.60358726	     -0.92563515	      5.31494422	      9.70856211	    -19.61679971	     -9.45963204	    -11.95290320	     22.83711782	    -37.40154113	    -13.83781468	     -7.86640325	      4.91727938	      0.00080691	     -0.03074253	     -0.00480618	      0.01652357	     -0.01764826	     -0.00807543	      0.00503037	     -0.06652924	     -0.00279697	      0.00719164	     -0.18361285	     -0.00033143	     -0.00409203	      0.00114562	      0.00017934	      0.00005773	      0.00002309	      0.00011546	      0.00007390	      0.00022169	      0.00012470	     -0.00001006	     -0.00023904	     -0.00028685	      0.00255446	      0.00896227	      0.00623462	     -0.00835612	      0.02017592	     -0.01913682	      0.00255446	      0.00896227	      0.00623462	      0.00056285	      0.01870386	     -0.00982819	      0.00401421	      0.00498380	      0.01612734	      0.00000000	      0.00812518	      0.00000000	     -0.00731702	     -0.03381416	     -0.00670145	      0.01215777	     -0.00034993	     -0.00241390	     -0.00090922	      0.01524018	     -0.00623462	      0.00251117	      0.02199435	     -0.01818431	     -0.00610473	      0.01320527	     -0.00558518	     -0.01272902	      0.02788261	     -0.03121640	     -0.02389938	      0.01476393	     -0.00749020	     -0.01584633	      0.03221220	     -0.03900967
      0.10000000	     -0.32918522	      0.13942732	     -0.13942732	      0.32918522	     -0.06665331	      0.53866861	      0.24212783	     -0.24212783	     -0.53866861	      0.06665331	     98.64001905	     77.93752707	     -1.72159311	    -17.28849341	     27.40739498	     34.09805077	      0.12613813	     -0.05930874	      0.15816407	     -0.02965437	     31.21637143	    -10.17271978	     15.66870198	      0.92310947	     -6.56749954	     13.52211285	      7.93210394	    -39.64368642	    -19.60578754	     -0.92673289	      5.31512232	      9.70833229	    -19.61655583	     -9.45927195	    -11.95273272	     22.83673667	    -37.40112189	    -13.83812387	     -7.86685086	      4.91724649	      0.00080655	     -0.03074131	     -0.00480598	      0.01652354	     -0.01764535	     -0.00807565	      0.00503054	     -0.06652913	     -0.00279678	      0.00719141	     -0.18361289	     -0.00033141	     -0.00409176	      0.00114553	      0.00017935	      0.00005774	      0.00002309	      0.00011547	      0.00007390	      0.00022170	      0.00012471	     -0.00001006	     -0.00023904	     -0.00028685	      0.00255462	      0.00896282	      0.00623501	     -0.00835664	      0.02017718	     -0.01913801	      0.00255462	      0.00896282	      0.00623501	      0.00056288	      0.01870502	     -0.00982880	      0.00401439	      0.00498411	      0.01612777	      0.00000000	      0.00812619	      0.00000000	     -0.00731747	     -0.03381626	     -0.00670229	      0.01216240	     -0.00035016	     -0.00241619	     -0.00090927	      0.01524113	     -0.00623501	      0.00251132	      0.02199572	     -0.01818544	     -0.00610511	      0.01320609	     -0.00558553	     -0.01272981	      0.02788434	     -0.03121834	     -0.02390086	      0.01476484	     -0.00749067	     -0.01584731	      0.03221421	     -0.03901210
      0.13333333	     -0.32903287	      0.13936280	     -0.13936280	      0.32903287	     -0.06662246	      0.53841932	      0.24201578	     -0.24201578	     -0.53841932	      0.06662246	     98.86387638	     77.90145729	     -1.72550015	    -17.80756366	     27.01888892	     33.96466539	      0.10349228	     -0.08271378	      0.13168697	     -0.04135689	     31.49256492	    -10.51880024	     15.55964627	     -2.50444682	     -7.81019206	     13.44139389	      8.83722992	    -41.44785758	    -22.24439175	     -1.45011411	      7.00335089	     13.92117324	    -20.85435504	     -9.66094126	    -13.21429279	     26.85154811	    -38.69526142	    -13.88066887	     -8.15827770	      4.97044382	      0.00079370	     -0.03069678	     -0.00479881	      0.01652147	     -0.01753981	     -0.00808878	      0.00504039	     -0.06652275	     -0.00278604	      0.00717823	     -0.18361544	     -0.00032986	     -0.00407575	      0.00114035	      0.00017988	      0.00007890	      0.00003156	      0.00015780	      0.00010099	      0.00030298	      0.00017043	     -0.00001036	     -0.00023634	     -0.00028361	      0.00255344	      0.00895868	      0.00623212	     -0.00835277	      0.02016784	     -0.01912915	      0.00255344	      0.00895868	      0.00623212	      0.00056262	      0.01869637	     -0.00982425	      0.00401305	      0.00498181	      0.01612458	      0.00000000	      0.00811862	      0.00000000	     -0.00731409	     -0.03380061	     -0.00669601	      0.01247896	     -0.00036558	     -0.00257571	     -0.00090885	      0.01523408	     -0.00623212	      0.00251016	      0.02198554	     -0.01817702	     -0.00610229	      0.01319998	     -0.00558294	     -0.01272392	      0.02787143	     -0.03120389	     -0.02388980	      0.01475801	     -0.00748720	     -0.01583998	      0.03219930	     -0.03899404
